<?xml version="1.0" ?>
<svg xmlns="http://www.w3.org/2000/svg" width="1200" height="888" viewBox="0 0 1200 888">
  <!-- ER Diagram - OnCourses Database -->
  <rect width="100%" height="100%" fill="#FAFAFA"/>
  <text x="600" y="35" text-anchor="middle" font-size="24" font-weight="bold" font-family="monospace, 'Courier New', sans-serif" fill="#333">OnCourses - Diagrama Entidad-Relación (32 tablas)</text>
  <rect x="40" y="60" width="540" height="170" rx="10" ry="10" fill="#E3F2FD" stroke="#1565C0" stroke-width="2"/>
  <rect x="40" y="60" width="540" height="36" rx="10" ry="10" fill="#1565C0"/>
  <rect x="40" y="80" width="540" height="16" fill="#1565C0"/>
  <text x="310.0" y="84" text-anchor="middle" font-size="14" font-weight="bold" font-family="monospace, 'Courier New', sans-serif" fill="#FFF">Usuarios (4 tablas)</text>
  <rect x="50" y="106" width="520" height="24" rx="4" ry="4" fill="#FFFFFF" fill_opacity="0.6"/>
  <text x="60" y="122" font-size="12" font-family="monospace, 'Courier New', sans-serif" fill="#333">◆  User</text>
  <text x="60" y="148" font-size="12" font-family="monospace, 'Courier New', sans-serif" fill="#333">◆  StudentProfile</text>
  <rect x="50" y="158" width="520" height="24" rx="4" ry="4" fill="#FFFFFF" fill_opacity="0.6"/>
  <text x="60" y="174" font-size="12" font-family="monospace, 'Courier New', sans-serif" fill="#333">◆  ProfessorProfile</text>
  <text x="60" y="200" font-size="12" font-family="monospace, 'Courier New', sans-serif" fill="#333">◆  AccessLog</text>
  <rect x="620" y="60" width="540" height="196" rx="10" ry="10" fill="#E8F5E9" stroke="#2E7D32" stroke-width="2"/>
  <rect x="620" y="60" width="540" height="36" rx="10" ry="10" fill="#2E7D32"/>
  <rect x="620" y="80" width="540" height="16" fill="#2E7D32"/>
  <text x="890.0" y="84" text-anchor="middle" font-size="14" font-weight="bold" font-family="monospace, 'Courier New', sans-serif" fill="#FFF">Cursos (5 tablas)</text>
  <rect x="630" y="106" width="520" height="24" rx="4" ry="4" fill="#FFFFFF" fill_opacity="0.6"/>
  <text x="640" y="122" font-size="12" font-family="monospace, 'Courier New', sans-serif" fill="#333">◆  Category</text>
  <text x="640" y="148" font-size="12" font-family="monospace, 'Courier New', sans-serif" fill="#333">◆  Course</text>
  <rect x="630" y="158" width="520" height="24" rx="4" ry="4" fill="#FFFFFF" fill_opacity="0.6"/>
  <text x="640" y="174" font-size="12" font-family="monospace, 'Courier New', sans-serif" fill="#333">◆  Module</text>
  <text x="640" y="200" font-size="12" font-family="monospace, 'Courier New', sans-serif" fill="#333">◆  Lesson</text>
  <rect x="630" y="210" width="520" height="24" rx="4" ry="4" fill="#FFFFFF" fill_opacity="0.6"/>
  <text x="640" y="226" font-size="12" font-family="monospace, 'Courier New', sans-serif" fill="#333">◆  Resource</text>
  <rect x="40" y="330" width="540" height="170" rx="10" ry="10" fill="#FFF3E0" stroke="#E65100" stroke-width="2"/>
  <rect x="40" y="330" width="540" height="36" rx="10" ry="10" fill="#E65100"/>
  <rect x="40" y="350" width="540" height="16" fill="#E65100"/>
  <text x="310.0" y="354" text-anchor="middle" font-size="14" font-weight="bold" font-family="monospace, 'Courier New', sans-serif" fill="#FFF">Comunidad (4 tablas)</text>
  <rect x="50" y="376" width="520" height="24" rx="4" ry="4" fill="#FFFFFF" fill_opacity="0.6"/>
  <text x="60" y="392" font-size="12" font-family="monospace, 'Courier New', sans-serif" fill="#333">◆  ForumThread</text>
  <text x="60" y="418" font-size="12" font-family="monospace, 'Courier New', sans-serif" fill="#333">◆  ForumPost</text>
  <rect x="50" y="428" width="520" height="24" rx="4" ry="4" fill="#FFFFFF" fill_opacity="0.6"/>
  <text x="60" y="444" font-size="12" font-family="monospace, 'Courier New', sans-serif" fill="#333">◆  Announcement</text>
  <text x="60" y="470" font-size="12" font-family="monospace, 'Courier New', sans-serif" fill="#333">◆  LessonComment</text>
  <rect x="620" y="330" width="540" height="300" rx="10" ry="10" fill="#F3E5F5" stroke="#6A1B9A" stroke-width="2"/>
  <rect x="620" y="330" width="540" height="36" rx="10" ry="10" fill="#6A1B9A"/>
  <rect x="620" y="350" width="540" height="16" fill="#6A1B9A"/>
  <text x="890.0" y="354" text-anchor="middle" font-size="14" font-weight="bold" font-family="monospace, 'Courier New', sans-serif" fill="#FFF">Progreso (9 tablas)</text>
  <rect x="630" y="376" width="520" height="24" rx="4" ry="4" fill="#FFFFFF" fill_opacity="0.6"/>
  <text x="640" y="392" font-size="12" font-family="monospace, 'Courier New', sans-serif" fill="#333">◆  Enrollment</text>
  <text x="640" y="418" font-size="12" font-family="monospace, 'Courier New', sans-serif" fill="#333">◆  LessonProgress</text>
  <rect x="630" y="428" width="520" height="24" rx="4" ry="4" fill="#FFFFFF" fill_opacity="0.6"/>
  <text x="640" y="444" font-size="12" font-family="monospace, 'Courier New', sans-serif" fill="#333">◆  QuestionBank</text>
  <text x="640" y="470" font-size="12" font-family="monospace, 'Courier New', sans-serif" fill="#333">◆  QuestionOption</text>
  <rect x="630" y="480" width="520" height="24" rx="4" ry="4" fill="#FFFFFF" fill_opacity="0.6"/>
  <text x="640" y="496" font-size="12" font-family="monospace, 'Courier New', sans-serif" fill="#333">◆  Exam</text>
  <text x="640" y="522" font-size="12" font-family="monospace, 'Courier New', sans-serif" fill="#333">◆  ExamQuestion</text>
  <rect x="630" y="532" width="520" height="24" rx="4" ry="4" fill="#FFFFFF" fill_opacity="0.6"/>
  <text x="640" y="548" font-size="12" font-family="monospace, 'Courier New', sans-serif" fill="#333">◆  ExamAttempt</text>
  <text x="640" y="574" font-size="12" font-family="monospace, 'Courier New', sans-serif" fill="#333">◆  AttemptAnswer</text>
  <rect x="630" y="584" width="520" height="24" rx="4" ry="4" fill="#FFFFFF" fill_opacity="0.6"/>
  <text x="640" y="600" font-size="12" font-family="monospace, 'Courier New', sans-serif" fill="#333">◆  Certificate</text>
  <rect x="40" y="600" width="540" height="144" rx="10" ry="10" fill="#FCE4EC" stroke="#C62828" stroke-width="2"/>
  <rect x="40" y="600" width="540" height="36" rx="10" ry="10" fill="#C62828"/>
  <rect x="40" y="620" width="540" height="16" fill="#C62828"/>
  <text x="310.0" y="624" text-anchor="middle" font-size="14" font-weight="bold" font-family="monospace, 'Courier New', sans-serif" fill="#FFF">Gamificación (3 tablas)</text>
  <rect x="50" y="646" width="520" height="24" rx="4" ry="4" fill="#FFFFFF" fill_opacity="0.6"/>
  <text x="60" y="662" font-size="12" font-family="monospace, 'Courier New', sans-serif" fill="#333">◆  Achievement</text>
  <text x="60" y="688" font-size="12" font-family="monospace, 'Courier New', sans-serif" fill="#333">◆  UserAchievement</text>
  <rect x="50" y="698" width="520" height="24" rx="4" ry="4" fill="#FFFFFF" fill_opacity="0.6"/>
  <text x="60" y="714" font-size="12" font-family="monospace, 'Courier New', sans-serif" fill="#333">◆  Review</text>
  <rect x="620" y="600" width="540" height="248" rx="10" ry="10" fill="#E0F7FA" stroke="#00695C" stroke-width="2"/>
  <rect x="620" y="600" width="540" height="36" rx="10" ry="10" fill="#00695C"/>
  <rect x="620" y="620" width="540" height="16" fill="#00695C"/>
  <text x="890.0" y="624" text-anchor="middle" font-size="14" font-weight="bold" font-family="monospace, 'Courier New', sans-serif" fill="#FFF">Comercial (7 tablas)</text>
  <rect x="630" y="646" width="520" height="24" rx="4" ry="4" fill="#FFFFFF" fill_opacity="0.6"/>
  <text x="640" y="662" font-size="12" font-family="monospace, 'Courier New', sans-serif" fill="#333">◆  Cart</text>
  <text x="640" y="688" font-size="12" font-family="monospace, 'Courier New', sans-serif" fill="#333">◆  CartItem</text>
  <rect x="630" y="698" width="520" height="24" rx="4" ry="4" fill="#FFFFFF" fill_opacity="0.6"/>
  <text x="640" y="714" font-size="12" font-family="monospace, 'Courier New', sans-serif" fill="#333">◆  Coupon</text>
  <text x="640" y="740" font-size="12" font-family="monospace, 'Courier New', sans-serif" fill="#333">◆  Order</text>
  <rect x="630" y="750" width="520" height="24" rx="4" ry="4" fill="#FFFFFF" fill_opacity="0.6"/>
  <text x="640" y="766" font-size="12" font-family="monospace, 'Courier New', sans-serif" fill="#333">◆  OrderItem</text>
  <text x="640" y="792" font-size="12" font-family="monospace, 'Courier New', sans-serif" fill="#333">◆  SupportTicket</text>
  <rect x="630" y="802" width="520" height="24" rx="4" ry="4" fill="#FFFFFF" fill_opacity="0.6"/>
  <text x="640" y="818" font-size="12" font-family="monospace, 'Courier New', sans-serif" fill="#333">◆  SupportMessage</text>
  <line x1="580" y1="160" x2="620" y2="160" stroke="#666" stroke-width="1.5" stroke-dasharray="6,3"/>
  <text x="600.0" y="152.0" text-anchor="middle" font-size="10" font-family="monospace, 'Courier New', sans-serif" fill="#666" font-style="italic">profesor dicta</text>
  <line x1="580" y1="220" x2="620" y2="370" stroke="#666" stroke-width="1.5" stroke-dasharray="6,3"/>
  <text x="600.0" y="287.0" text-anchor="middle" font-size="10" font-family="monospace, 'Courier New', sans-serif" fill="#666" font-style="italic">se inscribe</text>
  <line x1="1160" y1="180" x2="620" y2="450" stroke="#666" stroke-width="1.5" stroke-dasharray="6,3"/>
  <text x="890.0" y="307.0" text-anchor="middle" font-size="10" font-family="monospace, 'Courier New', sans-serif" fill="#666" font-style="italic">evaluación</text>
  <line x1="580" y1="260" x2="620" y2="660" stroke="#666" stroke-width="1.5" stroke-dasharray="6,3"/>
  <text x="600.0" y="452.0" text-anchor="middle" font-size="10" font-family="monospace, 'Courier New', sans-serif" fill="#666" font-style="italic">compra</text>
  <line x1="1160" y1="240" x2="40" y2="370" stroke="#666" stroke-width="1.5" stroke-dasharray="6,3"/>
  <text x="600.0" y="297.0" text-anchor="middle" font-size="10" font-family="monospace, 'Courier New', sans-serif" fill="#666" font-style="italic">foros</text>
</svg>
